<?xml version="1.0" standalone="no"?>
<!DOCTYPE svg PUBLIC "-//W3C//DTD SVG 20010904//EN"
 "http://www.w3.org/TR/2001/REC-SVG-20010904/DTD/svg10.dtd">
<svg version="1.0" xmlns="http://www.w3.org/2000/svg"
 width="1294.000000pt" height="238.000000pt" viewBox="0 0 1294.000000 238.000000"
 preserveAspectRatio="xMidYMid meet">

<g transform="translate(0.000000,238.000000) scale(0.100000,-0.100000)"
fill="#000000" stroke="none">
<path d="M10 1190 l0 -1180 1180 0 1180 0 0 1180 0 1180 -1180 0 -1180 0 0
-1180z m948 435 l2 -271 -185 -208 -185 -209 0 -173 0 -174 155 0 155 0 0 193
0 192 235 235 235 235 0 227 0 228 265 0 265 0 0 -247 -1 -248 -195 -220 -196
-220 194 -5 193 -5 3 -238 2 -237 -237 2 -238 3 -3 270 -2 270 185 208 185
208 0 175 0 174 -155 0 -155 0 0 -193 0 -192 -235 -235 -235 -235 0 -227 0
-228 -265 0 -265 0 0 246 0 245 197 222 197 222 -195 5 -194 5 -3 238 -2 237
237 -2 238 -3 3 -270z"/>
<path d="M8080 835 l0 -125 125 0 125 0 0 125 0 125 -125 0 -125 0 0 -125z"/>
</g>
</svg>
